<?xml version="1.0" standalone="no"?>
<!DOCTYPE svg PUBLIC "-//W3C//DTD SVG 20010904//EN"
 "http://www.w3.org/TR/2001/REC-SVG-20010904/DTD/svg10.dtd">
<svg version="1.0" xmlns="http://www.w3.org/2000/svg"
 width="64.000000pt" height="64.000000pt" viewBox="0 0 64.000000 64.000000"
 preserveAspectRatio="xMidYMid meet">

<g transform="translate(0.000000,64.000000) scale(0.100000,-0.100000)"
fill="#000000" stroke="none">
<path d="M304 573 c-49 -36 -91 -67 -93 -69 -1 -1 -1 -8 1 -14 2 -7 25 5 55
28 35 28 57 39 71 35 16 -4 20 -1 16 14 -7 24 48 57 81 49 31 -8 55 -53 48
-88 -4 -21 2 -34 25 -58 17 -16 39 -30 51 -30 11 0 29 -12 40 -27 24 -30 21
-39 -7 -24 -12 6 -66 11 -121 11 l-99 0 -32 40 c-19 24 -40 40 -52 40 -12 0
-45 -18 -74 -40 -32 -24 -64 -40 -81 -40 -26 0 -26 1 15 31 37 27 53 49 36 49
-3 0 -32 -20 -64 -45 -32 -25 -63 -45 -69 -45 -19 0 -51 -53 -51 -84 0 -19 11
-47 25 -66 31 -42 31 -48 0 -90 -33 -45 -33 -93 0 -125 23 -24 28 -25 169 -25
86 0 147 4 151 10 4 6 -10 10 -33 10 -26 0 -42 5 -46 15 -4 12 6 15 59 15 97
0 105 11 105 148 0 127 -8 142 -79 142 -30 0 -41 4 -39 13 6 18 168 22 180 5
8 -10 11 -10 15 0 2 6 22 12 43 12 29 0 43 -6 54 -22 22 -31 20 -53 -9 -96
-31 -46 -31 -69 0 -112 30 -41 32 -73 5 -100 -24 -24 -90 -28 -90 -5 0 8 -4
15 -10 15 -5 0 -10 -7 -10 -15 0 -12 -13 -15 -60 -15 -33 0 -60 -4 -60 -10 0
-6 43 -10 110 -10 104 0 112 1 135 25 33 32 33 80 0 125 -31 42 -31 48 0 90
20 28 25 45 25 96 0 53 -4 67 -26 93 -14 17 -35 31 -45 31 -33 0 -71 45 -63
75 4 16 0 35 -12 53 -47 72 -78 69 -190 -15z m8 -130 c34 -41 32 -43 -39 -43
l-68 1 35 29 c41 34 52 36 72 13z m76 -131 c9 -6 12 -37 10 -118 l-3 -109 -72
-3 c-73 -3 -73 -3 -73 23 0 24 3 26 28 20 31 -6 56 12 51 37 -2 7 2 23 9 35
13 24 14 23 -40 64 -23 17 -26 24 -18 40 8 14 21 19 53 19 23 0 48 -4 55 -8z
m-76 -95 c10 -4 11 -7 1 -18 -7 -7 -13 -20 -13 -30 0 -12 -9 -16 -40 -16 -22
0 -37 4 -34 9 3 5 -2 20 -10 33 -13 20 -14 25 -3 25 8 0 22 9 32 20 18 20 19
20 36 1 10 -10 24 -21 31 -24z"/>
<path d="M360 528 c0 -18 18 -34 28 -24 3 4 -2 14 -11 23 -16 16 -17 16 -17 1z"/>
<path d="M392 479 c2 -7 10 -15 17 -17 8 -3 12 1 9 9 -2 7 -10 15 -17 17 -8 3
-12 -1 -9 -9z"/>
<path d="M426 442 c-3 -6 1 -15 8 -21 8 -7 17 -8 20 -3 3 6 -1 15 -8 21 -8 7
-17 8 -20 3z"/>
<path d="M490 310 c0 -11 5 -20 10 -20 6 0 10 9 10 20 0 11 -4 20 -10 20 -5 0
-10 -9 -10 -20z"/>
<path d="M490 256 c0 -14 5 -26 10 -26 6 0 10 9 10 19 0 11 -4 23 -10 26 -6 4
-10 -5 -10 -19z"/>
<path d="M490 200 c0 -11 5 -20 10 -20 6 0 10 9 10 20 0 11 -4 20 -10 20 -5 0
-10 -9 -10 -20z"/>
<path d="M490 140 c0 -11 5 -20 10 -20 6 0 10 9 10 20 0 11 -4 20 -10 20 -5 0
-10 -9 -10 -20z"/>
<path d="M490 85 c0 -14 5 -25 10 -25 6 0 10 11 10 25 0 14 -4 25 -10 25 -5 0
-10 -11 -10 -25z"/>
</g>
</svg>
